# xmcd
#
# Track frame offsets:
#	150
#	14964
#	32043
#	49537
#	71244
#
# Disc length: 1174 seconds
#
# Revision: 0
# Processed by: cddbd v1.5.2PL0 Copyright (c) Steve Scherf et al.
# Submitted via: audiograbber 1.83.01
#
DISCID=44049405
DTITLE=Jade MacRae - Jade MacRae - So Hot Right Now (2004)
DYEAR=2004
DGENRE=R&B
TTITLE0=So Hot Right Now (Single Version)
TTITLE1=So Hot Right Now (Alternative Elite Fleet Mix)
TTITLE2=So Hot Right Now (A.K.47 Remix)
TTITLE3=Feel
TTITLE4=So Hot Right Now (Album Version)
EXTD=
EXTT0=
EXTT1=
EXTT2=
EXTT3=
EXTT4=
PLAYORDER=
